<svg xmlns="http://www.w3.org/2000/svg" viewBox="0 0 640 512"><path fill="#0ea5e9" d="M392.8 1.2c-15-6-31.8 1.2-37.8 16.2l-128 384c-6 15 1.2 31.8 16.2 37.8s31.8-1.2 37.8-16.2l128-384c6-15-1.2-31.8-16.2-37.8zm-80 102.9L233.9 192H320c17.7 0 32 14.3 32 32s-14.3 32-32 32H208c-9.5 0-18.5-4.2-24.6-11.5s-8.9-16.9-6.3-26.1l22.1-80.4c0-.1 0-.1 0-.1c1.9-7 6.3-13.1 12.3-17s13.8-6.7 21.2-6H320c17.7 0 32 14.3 32 32s-14.3 32-32 32H252.7zM320 320c17.7 0 32 14.3 32 32s-14.3 32-32 32H207.9c-7.4 0-14.6-2.3-20.6-6.2s-10.5-9.6-12.7-16.3l0-.1c-3.7-11.5 2.6-23.9 14.1-27.7s23.9 2.6 27.7 14.1l.9 2.7H320z"/></svg>